<svg width="257" height="155" viewBox="0 0 257 155" fill="none" xmlns="http://www.w3.org/2000/svg">
<g clip-path="url(#clip0)">
<path d="M13.366 153.678C13.3489 153.603 11.6914 146.045 15.0763 139.768C18.4612 133.491 25.6865 130.722 25.7591 130.695L26.0894 130.571L26.1674 130.915C26.1845 130.991 27.8419 138.549 24.457 144.826C21.0723 151.103 13.8468 153.871 13.7742 153.899L13.4438 154.023L13.366 153.678ZM25.6365 131.411C24.1892 132.034 18.4771 134.758 15.6183 140.06C12.7592 145.362 13.6218 151.632 13.8969 153.183C15.3436 152.562 21.0534 149.841 23.915 144.534C26.774 139.232 25.9117 132.962 25.6365 131.411V131.411Z" fill="#BDBDBD"/>
<path d="M21.8708 142.624C15.788 146.283 13.4453 153.552 13.4453 153.552C13.4453 153.552 20.9648 154.888 27.0476 151.228C33.1304 147.569 35.4731 140.3 35.4731 140.3C35.4731 140.3 27.9536 138.964 21.8708 142.624Z" fill="#BDBDBD"/>
<path d="M113.988 83.9571C114.08 83.4783 114.067 82.985 113.949 82.5119C113.83 82.0388 113.609 81.5975 113.302 81.219C112.994 80.8405 112.607 80.5341 112.168 80.3212C111.73 80.1084 111.249 79.9943 110.762 79.9871L107.945 72.9033L103.223 73.5652L107.341 83.513C107.383 84.3331 107.725 85.1091 108.301 85.6942C108.877 86.2792 109.648 86.6326 110.467 86.6874C111.286 86.7421 112.097 86.4944 112.746 85.9912C113.395 85.488 113.837 84.7643 113.988 83.9571Z" fill="#9F616A"/>
<path d="M105.289 81.4681L103.825 77.9788L94.707 60.6221L95.2028 28.5059L95.298 28.4933C101.133 27.7224 105.08 54.6057 105.245 55.7506L111.007 75.454L112.378 79.7969L105.289 81.4681Z" fill="#3A86FF"/>
<path d="M91.2783 149.19L95.7116 149.19L97.8205 132.09L91.2773 132.09L91.2783 149.19Z" fill="#9F616A"/>
<path d="M90.1445 147.743L98.8754 147.743H98.8758C100.351 147.743 101.767 148.329 102.81 149.372C103.853 150.416 104.44 151.831 104.44 153.307V153.487L90.1448 153.488L90.1445 147.743Z" fill="#2F2E41"/>
<path d="M50.5117 142.436L54.1493 144.97L65.6564 132.147L60.288 128.406L50.5117 142.436Z" fill="#9F616A"/>
<path d="M50.4133 140.602L57.5766 145.593L57.5769 145.593C58.7875 146.437 59.6133 147.727 59.8728 149.18C60.1323 150.632 59.8042 152.129 58.9606 153.339L58.8572 153.488L47.1289 145.315L50.4133 140.602Z" fill="#2F2E41"/>
<path d="M88.8367 145.17L88.6452 113.092L85.8557 92.9212L80.655 110.659L80.6449 110.674L61.7983 138.035L54.4648 134.32L54.505 134.224C54.9532 133.158 65.5135 108.122 68.352 108.122C68.5999 108.14 68.8483 108.097 69.0758 107.997C69.3033 107.897 69.5031 107.743 69.658 107.549C70.4911 106.436 69.8126 104.075 69.8057 104.052C68.9931 100.682 71.0362 99.5348 71.4431 99.3432L72.5376 76.7498L72.651 76.7576L102.322 78.8388L101.077 107.087L98.3997 144.097L98.3077 144.108L88.8367 145.17Z" fill="#2F2E41"/>
<path d="M102.781 83.8457L102.653 83.8353L70.7422 81.2631L70.821 70.7047L72.3828 43.1363L72.3917 43.1171L78.7522 29.3085L83.261 27.2668L89.8393 26.9207L89.8554 26.9247L95.8588 28.4121L102.104 73.2434L102.781 83.8457Z" fill="#3A86FF"/>
<path d="M90.8657 23.3817C94.9372 21.1561 96.4335 16.0512 94.2078 11.9797C91.9821 7.90815 86.8772 6.41182 82.8057 8.63751C78.7342 10.8632 77.2379 15.9681 79.4636 20.0396C81.6893 24.1111 86.7941 25.6074 90.8657 23.3817Z" fill="#9F616A"/>
<path d="M78.384 18.1184V14.8449C78.384 14.8449 75.7441 11.7358 78.648 10.9526C78.648 10.9526 79.4399 3.12059 86.3037 6.77551C86.3037 6.77551 95.8073 5.20912 94.7513 10.6915C94.7513 10.6915 97.1272 9.26022 96.3353 12.9151L94.8036 18.8026C94.8036 18.8026 95.5433 14.9135 93.1674 14.3914L91.8474 13.6082C91.8474 13.6082 88.1516 17.2631 82.6078 12.825C82.6078 12.825 80.2319 12.2579 80.4959 14.6075C80.7599 16.9571 78.384 18.1184 78.384 18.1184Z" fill="#2F2E41"/>
<path d="M85.9669 75.9609C85.9722 75.4732 85.8705 74.9903 85.669 74.5462C85.4675 74.102 85.171 73.7075 84.8005 73.3903C84.4301 73.0732 83.9945 72.8411 83.5247 72.7105C83.0548 72.5798 82.562 72.5538 82.0809 72.6342L78.0386 66.1709L73.5117 67.6695L79.3485 76.7168C79.5371 77.5159 80.0124 78.2181 80.6842 78.6903C81.356 79.1624 82.1776 79.3717 82.9934 79.2786C83.8092 79.1854 84.5625 78.7962 85.1106 78.1847C85.6586 77.5732 85.9633 76.782 85.9669 75.9609Z" fill="#9F616A"/>
<path d="M75.5202 73.9235L68.207 59.0757L68.2135 59.0396C68.243 58.8752 71.1868 42.5297 73.4383 36.5216C75.704 30.4755 78.8054 29.2615 78.9363 29.2128L79.0017 29.1885L81.7826 31.8559L77.9305 57.5676L82.0827 69.9681L75.5202 73.9235Z" fill="#3A86FF"/>
<path d="M256.176 0H242.016V14.16H256.176V0Z" fill="#BDBDBD"/>
<path d="M145.359 55.1008H131.199V69.2608H145.359V55.1008Z" fill="#BDBDBD"/>
<path d="M139.145 63.056H251.093V6.38257H139.145V63.056Z" fill="#3F3D56"/>
<path d="M252.018 63.9794H138.223V5.45898H252.018V63.9794ZM140.07 62.1325H250.171V7.30594H140.07V62.1325Z" fill="#BDBDBD"/>
<path d="M206.132 41.4133H190.125V43.8921H206.132V41.4133Z" fill="#FAD284"/>
<path d="M117.589 154.01H0.307826C0.226185 154.01 0.147888 153.978 0.0901598 153.92C0.0324313 153.862 0 153.784 0 153.702C0 153.621 0.0324313 153.542 0.0901598 153.485C0.147888 153.427 0.226185 153.395 0.307826 153.395H117.589C117.671 153.395 117.749 153.427 117.807 153.485C117.865 153.542 117.897 153.621 117.897 153.702C117.897 153.784 117.865 153.862 117.807 153.92C117.749 153.978 117.671 154.01 117.589 154.01Z" fill="#BDBDBD"/>
<path d="M179.699 31.8593C179.677 31.6016 178.607 31.4868 177.14 31.5514C177.99 30.2749 178.483 29.2564 178.292 29.0959C178.113 28.9445 177.377 29.5989 176.481 30.6618C176.397 29.2359 176.2 28.2363 175.971 28.2363C175.721 28.2363 175.51 29.4256 175.441 31.0603C174.194 30.1049 173.188 29.5443 173.033 29.7533C172.885 29.9528 173.559 30.7957 174.629 31.8039C173.216 32.0274 172.221 32.3429 172.243 32.5961C172.265 32.8539 173.335 32.9686 174.802 32.9041C173.952 34.1805 173.459 35.1991 173.65 35.3595C173.829 35.5109 174.565 34.8565 175.461 33.7937C175.545 35.2195 175.742 36.2191 175.971 36.2191C176.221 36.2191 176.432 35.0298 176.502 33.3952C177.748 34.3505 178.754 34.9112 178.909 34.7021C179.057 34.5026 178.383 33.6598 177.313 32.6515C178.726 32.428 179.722 32.1126 179.699 31.8593Z" fill="#FAD284"/>
<path d="M189.129 31.8593C189.107 31.6016 188.037 31.4868 186.57 31.5514C187.42 30.2749 187.913 29.2564 187.722 29.0959C187.542 28.9445 186.807 29.5989 185.911 30.6618C185.826 29.2359 185.63 28.2363 185.401 28.2363C185.151 28.2363 184.94 29.4256 184.87 31.0603C183.624 30.1049 182.618 29.5443 182.463 29.7533C182.315 29.9528 182.988 30.7957 184.059 31.8039C182.646 32.0274 181.65 32.3429 181.672 32.5961C181.695 32.8539 182.764 32.9686 184.232 32.9041C183.381 34.1805 182.889 35.1991 183.079 35.3595C183.259 35.5109 183.995 34.8565 184.89 33.7937C184.975 35.2195 185.172 36.2191 185.401 36.2191C185.651 36.2191 185.862 35.0298 185.931 33.3952C187.177 34.3505 188.184 34.9112 188.339 34.7021C188.487 34.5026 187.813 33.6598 186.742 32.6515C188.156 32.428 189.151 32.1126 189.129 31.8593Z" fill="#FAD284"/>
<path d="M198.563 31.8593C198.54 31.6016 197.471 31.4868 196.003 31.5514C196.854 30.2749 197.346 29.2564 197.156 29.0959C196.976 28.9445 196.24 29.5989 195.345 30.6618C195.26 29.2359 195.063 28.2363 194.834 28.2363C194.584 28.2363 194.373 29.4256 194.304 31.0603C193.058 30.1049 192.051 29.5443 191.896 29.7533C191.748 29.9528 192.422 30.7957 193.493 31.8039C192.079 32.0274 191.084 32.3429 191.106 32.5961C191.128 32.8539 192.198 32.9686 193.665 32.9041C192.815 34.1805 192.322 35.1991 192.513 35.3595C192.693 35.5109 193.428 34.8565 194.324 33.7937C194.409 35.2195 194.605 36.2191 194.834 36.2191C195.084 36.2191 195.295 35.0298 195.365 33.3952C196.611 34.3505 197.617 34.9112 197.772 34.7021C197.92 34.5026 197.247 33.6598 196.176 32.6515C197.589 32.428 198.585 32.1126 198.563 31.8593Z" fill="#FAD284"/>
<path d="M207.996 31.8593C207.974 31.6016 206.904 31.4868 205.437 31.5514C206.287 30.2749 206.78 29.2564 206.589 29.0959C206.409 28.9445 205.674 29.5989 204.778 30.6618C204.694 29.2359 204.497 28.2363 204.268 28.2363C204.018 28.2363 203.807 29.4256 203.737 31.0603C202.491 30.1049 201.485 29.5443 201.33 29.7533C201.182 29.9528 201.855 30.7957 202.926 31.8039C201.513 32.0274 200.517 32.3429 200.539 32.5961C200.562 32.8539 201.631 32.9686 203.099 32.9041C202.249 34.1805 201.756 35.1991 201.947 35.3595C202.126 35.5109 202.862 34.8565 203.758 33.7937C203.842 35.2195 204.039 36.2191 204.268 36.2191C204.518 36.2191 204.729 35.0298 204.798 33.3952C206.045 34.3505 207.051 34.9112 207.206 34.7021C207.354 34.5026 206.68 33.6598 205.61 32.6515C207.023 32.428 208.018 32.1126 207.996 31.8593Z" fill="#FAD284"/>
<path d="M217.422 31.8593C217.4 31.6016 216.33 31.4868 214.863 31.5514C215.713 30.2749 216.206 29.2564 216.015 29.0959C215.835 28.9445 215.1 29.5989 214.204 30.6618C214.119 29.2359 213.923 28.2363 213.694 28.2363C213.444 28.2363 213.233 29.4256 213.163 31.0603C211.917 30.1049 210.911 29.5443 210.756 29.7533C210.608 29.9528 211.281 30.7957 212.352 31.8039C210.939 32.0274 209.943 32.3429 209.965 32.5961C209.988 32.8539 211.057 32.9686 212.525 32.9041C211.674 34.1805 211.182 35.1991 211.372 35.3595C211.552 35.5109 212.288 34.8565 213.183 33.7937C213.268 35.2195 213.465 36.2191 213.694 36.2191C213.944 36.2191 214.155 35.0298 214.224 33.3952C215.47 34.3505 216.477 34.9112 216.632 34.7021C216.78 34.5026 216.106 33.6598 215.035 32.6515C216.449 32.428 217.444 32.1126 217.422 31.8593Z" fill="#FAD284"/>
</g>
<defs>
<clipPath id="clip0">
<rect width="256.174" height="154.023" fill="white"/>
</clipPath>
</defs>
</svg>
