<svg width="600" height="101" viewBox="0 0 600 101" fill="none" xmlns="http://www.w3.org/2000/svg">
<path fill-rule="evenodd" clip-rule="evenodd" d="M600 71.6786L575 80.6384C550 89.5982 500 107.518 450 98.5581C400 89.5982 350 53.7589 300 53.7589C250 53.7589 200 89.5982 150 98.558C100 107.518 50 89.5982 25 80.6384L2.56336e-06 71.6785L8.8297e-06 -5.24537e-05L25 -5.02681e-05C50 -4.80825e-05 100 -4.37114e-05 150 -3.93402e-05C200 -3.49691e-05 250 -3.0598e-05 300 -2.62268e-05C350 -2.18557e-05 400 -1.74846e-05 450 -1.31134e-05C500 -8.74228e-06 550 -4.37114e-06 575 -2.18557e-06L600 0L600 71.6786Z" fill="#D8E7FF"/>
</svg>
